<svg xmlns="http://www.w3.org/2000/svg" width="330" height="190" version="1.0"><path d="M42.806 133.788c-4.943-2.804-11.8-4.572-17.413-4.572-11.139 0-19.177 7.376-19.177 18.663 0 10.772 5.974 13.137 15.049 15.714 3.1.889 8.782 2.29 8.782 6.349 0 3.91-3.618 5.608-7.01 5.608-4.946 0-9.222-2.582-12.84-5.756L4 181.45c5.682 3.985 12.54 6.345 19.55 6.345 5.61 0 11.435-1.55 15.79-5.239 4.428-3.762 5.756-9.444 5.756-14.979 0-9-5.978-12.91-13.72-15.196l-3.693-1.106c-2.508-.814-6.418-2.068-6.418-5.312 0-3.1 3.54-4.65 6.2-4.65 3.54 0 6.928 1.475 9.589 3.687l5.752-11.212z" fill="#005697"/><path d="M66.457 142.935H78.41v-12.249H40.048v12.249h11.948v43.382h14.46v-43.382zM94.176 130.688h-14.46v55.63h14.46v-55.63zM127.946 142.935v-12.249H96v55.63h14.46v-21.832h15.863v-12.253H110.46v-9.296h17.487zM154.927 142.935h11.953v-12.249h-38.366v12.249h11.952v43.382h14.461v-43.382zM201.98 130.688v29.296c0 7.228-.518 15.123-9.819 15.123-9.296 0-9.806-7.895-9.806-15.123v-29.296h-14.47v31.286c0 7.154.301 14.239 5.831 19.62 4.65 4.581 11.957 6.201 18.445 6.201 6.497 0 13.799-1.62 18.45-6.2 5.534-5.382 5.825-12.467 5.825-19.621v-31.286H201.98zM217.96 186.318h14.457v-34.085h.148l26.491 34.085h14.465v-55.63h-14.465v34.011h-.148l-26.491-34.011H217.96v55.63z" fill="#005697"/><path d="M299.918 155.256v11.364h11.805c-.588 6.419-5.387 9.667-11.657 9.667-9.514 0-14.683-8.783-14.683-17.413 0-8.486 4.938-17.56 14.461-17.56 5.826 0 10.032 3.54 12.022 8.856l13.725-5.757c-4.794-10.402-13.646-15.57-25.085-15.57-17.927 0-30.18 11.878-30.18 29.957 0 17.487 12.18 29.366 29.666 29.366 9.297 0 17.483-3.323 22.947-10.921 4.943-6.937 5.53-13.869 5.678-21.99h-28.699zM38.16 79.33V67.08H6.504v55.632H38.16v-12.245H20.97v-9.592h16.302V88.626H20.969V79.33H38.16zM54.22 99.693h1.477c4.724 0 11.879-.662 11.879 6.053 0 6.122-7.229 5.9-11.509 5.9h-1.846V99.693zm7.821 23.022c10.185 0 20.143-3.837 20.143-15.497 0-7.747-3.392-13.133-11.36-14.165v-.148c4.498-2.286 6.122-6.344 6.122-11.365 0-10.62-6.64-14.46-16.525-14.46h-20.66v55.635h22.28zm-7.82-44.567h1.036c3.91 0 8.408.296 8.408 5.386 0 4.725-3.984 5.391-7.82 5.391h-1.624V78.148z" fill="#005697"/><path d="M111.08 79.33V67.08H79.428v55.632h31.652v-12.245H93.89v-9.592h16.306V88.626H93.889V79.33h17.19zM141.456 99.915c7.894-1.403 12.17-8.043 12.17-15.715 0-11.879-8.334-17.117-19.329-17.117h-21.62v55.63h14.466v-21.396h.148l13.646 21.397h18.006l-17.487-22.8zm-14.313-21.768h1.402c4.72 0 10.032.889 10.032 6.937 0 6.052-5.312 6.936-10.032 6.936h-1.402V78.147zM181.357 79.33h11.948V67.08h-38.366v12.25h11.953v43.382h14.465V79.33zM38.453 15.724V3.475H6.506v55.63h14.46v-21.84h15.868V25.016H20.967v-9.292h17.486zM67.957 36.31c7.895-1.403 12.17-8.043 12.17-15.715 0-11.879-8.333-17.117-19.328-17.117H39.184v55.626h14.46V37.711h.149l13.65 21.393h18.001L67.957 36.31zM53.645 14.541h1.398c4.724 0 10.036.888 10.036 6.937 0 6.048-5.312 6.936-10.036 6.936h-1.398V14.542z" fill="#005697"/><path d="M95.757 3.477H81.292v55.626h14.465V3.477zM129.54 15.724V3.475H97.89v55.63h31.65V46.858h-17.19v-9.592h16.307V25.016H112.35v-9.292h17.19zM131.138 59.105h20.513c15.423 0 28.255-12.174 28.255-27.815 0-15.64-12.758-27.81-28.255-27.81h-20.513v55.625zm14.46-43.382h3.397c9.296 0 15.862 5.609 15.862 15.567 0 10.847-7.376 15.567-16.01 15.567h-3.249V15.723z" fill="#005697"/><path d="M205.884 36.31c7.894-1.403 12.17-8.043 12.17-15.715 0-11.879-8.334-17.117-19.329-17.117H177.11v55.626h14.461V37.711h.148l13.647 21.393h18.005L205.884 36.31zM191.57 14.541h1.402c4.72 0 10.033.888 10.033 6.937 0 6.048-5.313 6.936-10.033 6.936h-1.402V14.542z" fill="#005697"/><path d="M233.68 3.477h-14.456v55.626h14.456V3.477z" fill="#005697"/><path d="M274.111 4.804C269.827 3.032 265.546 2 260.905 2c-7.825 0-15.724 3.392-21.184 9-5.308 5.46-8.182 12.767-8.182 20.37 0 8.256 2.8 15.488 8.922 21.022 5.761 5.239 13.133 8.19 20.875 8.19 4.507 0 7.973-1.105 12.775-2.586V40.662c-3.03 3.614-7.75 5.904-12.475 5.904-9 0-15.048-6.348-15.048-15.127 0-8.634 5.974-15.418 14.826-15.418 4.947 0 9.74 2.138 12.697 6.122V4.804zM290.177 24.945V3.478H275.72v55.627h14.457V36.31h20.883v22.795h14.46V3.478h-14.46v21.467h-20.883z" fill="#005697"/><path d="M193.59 78.02h57.582m-47.236-11.674h36.881m-42.454 5.042h48.29m-55.988 13.799h63.681m-57.581 29.453h51.211m-57.041-10.616h62.88m-64.474-10.612h66.072M208.707 78.02l13.538-13.8 13.799 13.8m-13.799 48.82V64.22m-32.901 29.72c0-18.045 14.857-32.898 32.901-32.898 18.306 0 33.432 14.853 33.432 32.897 0 18.31-15.126 33.171-33.432 33.171-18.044 0-32.901-14.861-32.901-33.17z" fill="none" stroke="#005697" stroke-width="1.5936774599999999"/></svg>
