<svg xmlns="http://www.w3.org/2000/svg" viewBox="0 0 242.05 266.29"><defs><style>.cls-1{fill:#000;}.cls-2{fill:#be1622;}</style></defs><title>Element 1</title><g id="Ebene_2" data-name="Ebene 2"><g id="Ebene_1-2" data-name="Ebene 1"><path class="cls-1" d="M2.53,28.58H68.81V51.1H29.42V70.48H63.18V93H29.42V130.2H2.53Z"/><path class="cls-1" d="M186.19,51.1H159.3V28.58H240V51.1H213.08v79.1H186.19Z"/><path class="cls-1" d="M52.13,134.65c13.44,0,24.92,6.22,32.46,13.38L69.18,164.52c-5.25-4.35-9.84-6.84-16.72-6.84-12.79,0-23.61,10.89-23.61,29.25,0,19,9.18,29.57,22.95,29.57a25.22,25.22,0,0,0,18.69-8.09L85.9,224.59a45.62,45.62,0,0,1-34.43,14.94C23.61,239.53,0,222.41,0,187.86,0,153.94,24.59,134.65,52.13,134.65Z"/><path class="cls-1" d="M90.25,136.06h26.89v79.11H155.6v22.51H90.25Z"/><path class="cls-1" d="M161.27,136.49h37.06c21.55,0,39,5.32,39,25.33a22.2,22.2,0,0,1-17.11,21.89v.62c14.58,2.82,21.86,10.32,21.86,23.76,0,20.95-18.37,30-40.55,30H161.27Zm36.43,40c8.87,0,13-4.37,13-10.63s-4.12-8.75-13-8.75h-9.19v19.38Zm1.9,41c10.77,0,15.84-4.06,15.84-11.56s-5.07-10.64-15.84-10.64H188.51v22.2Z"/><rect class="cls-2" x="2.53" width="238.11" height="22.51"/><rect class="cls-2" x="2.53" y="243.78" width="238.11" height="22.51"/><path class="cls-1" d="M122.43,26.93a46.44,46.44,0,0,1,33,13.38l-14.9,16.5C135.42,52.45,131,50,122.75,50c-13.94,0-24.4,10.89-24.4,29.25,0,19,8.55,29.57,26.93,29.57,2.86,0,6-.62,7.93-1.87v-14H118V71.12h39.3v48.24a58.72,58.72,0,0,1-35.49,12.45c-28.21,0-51.34-17.12-51.34-51.66C70.46,46.23,94.23,26.93,122.43,26.93Z"/></g></g></svg>
